<?xml version="1.0" encoding="utf-8"?>
<!-- Generator: Adobe Illustrator 22.0.1, SVG Export Plug-In . SVG Version: 6.00 Build 0)  -->
<svg version="1.1" xmlns="http://www.w3.org/2000/svg" xmlns:xlink="http://www.w3.org/1999/xlink" x="0px" y="0px"
	 viewBox="0 0 108 108" style="enable-background:new 0 0 108 108;" xml:space="preserve">
<style type="text/css">
	.st0{fill:#1E9287;}
	.st1{display:none;}
	.st2{display:inline;fill:none;stroke:#000000;stroke-miterlimit:10;}
	.st3{fill:url(#SVGID_1_);}
	.st4{fill:#009287;}
	.st5{fill:#FFFFFF;}
	.st6{display:inline;opacity:0.3;}
	.st7{display:inline;opacity:0.1;fill:none;stroke:#000000;stroke-width:0.2;stroke-miterlimit:10;}
	.st8{display:inline;opacity:0.6;}
	.st9{fill:#00B28E;}
</style>
<g id="Background_Layer">
	<rect id="Background_Colour" class="st0" width="108" height="108"/>
</g>
<g id="Capa_4" class="st1">
	<path class="st2" d="M96,108H12c-6.6,0-12-5.4-12-12V12C0,5.4,5.4,0,12,0h84c6.6,0,12,5.4,12,12v84C108,102.6,102.6,108,96,108z"/>
</g>
<g id="Foreground_Layer">
	<g id="Drop_Shadow">
		<linearGradient id="SVGID_1_" gradientUnits="userSpaceOnUse" x1="66.3434" y1="67.1112" x2="125.0173" y2="125.7852">
			<stop  offset="0.3188" style="stop-color:#004D40;stop-opacity:0.15"/>
			<stop  offset="0.62" style="stop-color:#898380;stop-opacity:2.000000e-02"/>
			<stop  offset="1" style="stop-color:#000000;stop-opacity:0"/>
		</linearGradient>
		<polygon class="st3" points="54.2,79.5 87.3,113.6 109.8,113.6 109.8,90.1 109.8,89.1 109.8,87.6 109.8,86.5 65.4,40.7 		"/>
	</g>
	<circle class="st4" cx="54" cy="52.2" r="11.3"/>
	<g>
		
			<image style="overflow:visible;opacity:0.25;" width="30" height="27" xlink:href="91AAA5B2BABFA60B.png"  transform="matrix(1 0 0 1 39 41)">
		</image>
		<g>
			<path class="st5" d="M61.3,45.1H46.7v1.8h14.6L61.3,45.1L61.3,45.1z M62.2,54.2v-1.8l-0.9-4.6H46.7l-0.9,4.6v1.8h0.9v5.5h9.1
				v-5.5h3.7v5.5h1.8v-5.5H62.2L62.2,54.2z M54,57.8h-5.5v-3.7H54V57.8L54,57.8z"/>
		</g>
	</g>
	<g>
		<path class="st5" d="M54.1,79.6c-1.8-2.1-3.6-3.9-5.2-5.9c-3.8-4.5-7.2-9.2-9.6-14.6C37,53.8,37,48.6,39.9,43.7
			c3.6-5.9,10.4-9,17.2-7.7c6.7,1.3,11.9,6.6,13.1,13.3c0.5,3.4-0.1,6.6-1.5,9.7c-2.1,4.9-5.2,9.3-8.6,13.4 M65,52.2
			c0-6.1-4.8-11.1-11-11.1c-6,0-11,4.9-11,11c0,6.1,4.8,11.1,10.9,11.1C60,63.1,65,58.3,65,52.2z"/>
	</g>
</g>
<g id="Grid" class="st1">
	<g id="Circle" class="st6">
		<g>
			<path d="M54,28.3c14.2,0,25.7,11.5,25.7,25.7S68.2,79.7,54,79.7S28.3,68.2,28.3,54S39.8,28.3,54,28.3 M54,28
				c-14.4,0-26,11.6-26,26s11.6,26,26,26s26-11.6,26-26S68.4,28,54,28L54,28z"/>
		</g>
	</g>
	<g id="Inner_Circle" class="st6">
		<g>
			<path d="M54,36.3c9.8,0,17.7,7.9,17.7,17.7S63.8,71.7,54,71.7S36.3,63.8,36.3,54S44.2,36.3,54,36.3 M54,36c-9.9,0-18,8.1-18,18
				c0,9.9,8.1,18,18,18c9.9,0,18-8.1,18-18C72,44.1,63.9,36,54,36L54,36z"/>
		</g>
	</g>
	<path id="Horizontal_Rectangle" class="st7" d="M76,72H32c-2.2,0-4-1.8-4-4V40c0-2.2,1.8-4,4-4h44c2.2,0,4,1.8,4,4v28
		C80,70.2,78.2,72,76,72z"/>
	<path id="Vertical_Rectangle" class="st7" d="M36,76V32c0-2.2,1.8-4,4-4h28c2.2,0,4,1.8,4,4v44c0,2.2-1.8,4-4,4H40
		C37.8,80,36,78.2,36,76z"/>
	<path id="Square" class="st7" d="M72,76H36c-2.2,0-4-1.8-4-4V36c0-2.2,1.8-4,4-4h36c2.2,0,4,1.8,4,4v36C76,74.2,74.2,76,72,76z"/>
	<g id="Circular_Mask__x28_Pixel_x29_" class="st8">
		<g>
			<path class="st9" d="M54,18.6c19.5,0,35.4,15.9,35.4,35.4S73.5,89.4,54,89.4S18.6,73.5,18.6,54S34.5,18.6,54,18.6 M54,18
				c-19.9,0-36,16.1-36,36s16.1,36,36,36s36-16.1,36-36S73.9,18,54,18L54,18z"/>
		</g>
	</g>
</g>
</svg>
