<?xml version="1.0" encoding="utf-8"?>
<!-- Generator: Adobe Illustrator 22.0.1, SVG Export Plug-In . SVG Version: 6.00 Build 0)  -->
<svg version="1.1" id="Capa_1" xmlns="http://www.w3.org/2000/svg" xmlns:xlink="http://www.w3.org/1999/xlink" x="0px" y="0px"
	 viewBox="0 0 64 64" style="enable-background:new 0 0 64 64;" xml:space="preserve">
<style type="text/css">
	.st0{fill:url(#Shape_3_);}
	.st1{fill:url(#Shape_5_);}
	.st2{fill:url(#Shape_6_);}
	.st3{fill:#FFFFFF;}
	.st4{display:none;fill:#FFFFFF;}
	.st5{font-family:'AvenirNext-Bold';}
	.st6{font-size:24px;}
</style>
<title>icon_IntelliJIDEA</title>
<desc>Created with Sketch.</desc>
<g id="Page-1">
	<g id="icon_IntelliJIDEA">
		
			<linearGradient id="Shape_3_" gradientUnits="userSpaceOnUse" x1="-406.7098" y1="476.0535" x2="-405.4973" y2="475.6212" gradientTransform="matrix(40.6 0 0 -63 16536.5996 30013)">
			<stop  offset="0" style="stop-color:#C2185B"/>
			<stop  offset="1" style="stop-color:#087CFA"/>
		</linearGradient>
		<polygon id="Shape_1_" class="st0" points="57.8,18.2 63.8,52.1 39.2,62 24.4,52.4 46,30 34.1,9.6 46.6,2 		"/>
		
			<linearGradient id="Shape_5_" gradientUnits="userSpaceOnUse" x1="-401.7702" y1="471.5724" x2="-402.0139" y2="472.1016" gradientTransform="matrix(28.4 0 0 -39.1 11461.4004 18469.2988)">
			<stop  offset="0" style="stop-color:#FF5252"/>
			<stop  offset="1" style="stop-color:#2196F3"/>
		</linearGradient>
		<polygon id="Shape_2_" class="st1" points="57.8,18.2 45.5,38.1 34,12.2 52,12 		"/>
		
			<linearGradient id="Shape_6_" gradientUnits="userSpaceOnUse" x1="-408.1875" y1="475.9793" x2="-407.8474" y2="475.5366" gradientTransform="matrix(49.1 0 0 -62.4 20057.6992 29722.2012)">
			<stop  offset="0" style="stop-color:#00B8D4"/>
			<stop  offset="1" style="stop-color:#7B1FA2"/>
		</linearGradient>
		<polygon id="Shape_4_" class="st2" points="24.9,1.2 50.1,23 31.8,51.1 6.2,60.4 10.3,46 13.7,35.6 1,23.3 		"/>
		<g id="Group" transform="translate(12.000000, 12.000000)">
			<rect id="Rectangle-path" width="40" height="40"/>
			<g transform="translate(3.000000, 5.000000)">
				<rect id="Rectangle-path_1_" x="0.8" y="27.5" class="st3" width="15" height="2.5"/>
			</g>
		</g>
	</g>
</g>
<text transform="matrix(1 0 0 1 15.1288 33.9675)" class="st4 st5 st6">SB</text>
<g>
	<path class="st3" d="M25.9,21.4c-0.4-0.4-0.8-0.8-1.4-1.1c-0.6-0.3-1.1-0.4-1.6-0.4c-0.3,0-0.5,0-0.8,0.1c-0.3,0-0.5,0.1-0.8,0.3
		c-0.2,0.1-0.4,0.3-0.6,0.5c-0.2,0.2-0.2,0.5-0.2,0.8c0,0.3,0.1,0.5,0.2,0.7c0.1,0.2,0.3,0.4,0.5,0.5c0.2,0.1,0.5,0.3,0.8,0.4
		c0.3,0.1,0.7,0.2,1.1,0.4c0.6,0.2,1.2,0.4,1.8,0.6s1.2,0.5,1.7,0.9c0.5,0.4,0.9,0.9,1.3,1.4c0.3,0.6,0.5,1.3,0.5,2.1
		c0,1-0.2,1.8-0.5,2.5C27.5,32,27,32.6,26.4,33c-0.6,0.5-1.3,0.8-2.1,1c-0.8,0.2-1.6,0.3-2.4,0.3c-1.2,0-2.4-0.2-3.5-0.6
		c-1.1-0.4-2.1-1-2.8-1.8l2.7-2.7c0.4,0.5,1,0.9,1.6,1.3s1.4,0.5,2,0.5c0.3,0,0.6,0,0.9-0.1s0.5-0.2,0.8-0.3
		c0.2-0.1,0.4-0.3,0.5-0.6c0.1-0.2,0.2-0.5,0.2-0.9c0-0.3-0.1-0.6-0.2-0.8c-0.2-0.2-0.4-0.4-0.7-0.6c-0.3-0.2-0.7-0.4-1.1-0.5
		c-0.4-0.2-0.9-0.3-1.5-0.5c-0.5-0.2-1.1-0.4-1.6-0.6c-0.5-0.2-1-0.5-1.4-0.9c-0.4-0.4-0.7-0.8-1-1.4c-0.2-0.5-0.4-1.2-0.4-2
		c0-0.9,0.2-1.8,0.6-2.4c0.4-0.7,0.9-1.2,1.5-1.7c0.6-0.4,1.3-0.7,2.1-0.9c0.8-0.2,1.6-0.3,2.4-0.3c1,0,1.9,0.2,2.9,0.5
		c1,0.4,1.9,0.9,2.6,1.6L25.9,21.4z"/>
	<path class="st3" d="M44.3,29c0,0.9-0.2,1.7-0.6,2.3c-0.4,0.6-0.9,1.1-1.5,1.5c-0.6,0.4-1.3,0.7-2.1,0.8c-0.8,0.2-1.6,0.3-2.4,0.3
		h-6.8V17h6.8c0.7,0,1.3,0.1,2,0.2c0.7,0.1,1.3,0.4,1.9,0.7c0.6,0.3,1,0.8,1.4,1.3c0.4,0.6,0.5,1.3,0.5,2.1c0,0.9-0.3,1.7-0.8,2.3
		c-0.5,0.6-1.2,1.1-2,1.3v0c0.5,0.1,0.9,0.2,1.4,0.4s0.8,0.5,1.1,0.8c0.3,0.3,0.6,0.7,0.7,1.2C44.2,28,44.3,28.5,44.3,29z
		 M39.7,21.9c0-0.6-0.2-1-0.7-1.3s-1.1-0.4-2-0.4h-2v3.5h2.2c0.8,0,1.4-0.2,1.8-0.5C39.4,23,39.7,22.5,39.7,21.9z M40.2,28.6
		c0-0.7-0.3-1.2-0.8-1.5c-0.5-0.3-1.2-0.4-2.1-0.4H35v3.9h2.3c0.3,0,0.7,0,1-0.1c0.3-0.1,0.7-0.2,0.9-0.3c0.3-0.1,0.5-0.3,0.7-0.6
		C40.1,29.4,40.2,29.1,40.2,28.6z"/>
</g>
</svg>
