<?xml version="1.0" encoding="utf-8"?>
<!-- Generator: Adobe Illustrator 22.0.1, SVG Export Plug-In . SVG Version: 6.00 Build 0)  -->
<svg version="1.1" id="Capa_1" xmlns="http://www.w3.org/2000/svg" xmlns:xlink="http://www.w3.org/1999/xlink" x="0px" y="0px"
	 viewBox="0 0 24 24" style="enable-background:new 0 0 24 24;" xml:space="preserve">
<path d="M9.7,11.2c1.3-0.6,2-1.6,2-3.1c0-2.9-2.2-3.7-4.7-3.7H0v14.8h7.2c2.7,0,5.2-1.3,5.2-4.3C12.4,13.1,11.5,11.7,9.7,11.2
	L9.7,11.2z M3.2,6.9h3c1.2,0,2.2,0.3,2.2,1.7c0,1.3-0.8,1.8-2,1.8H3.2C3.2,10.4,3.2,6.9,3.2,6.9z M6.7,16.7H3.2v-4.1h3.5
	c1.4,0,2.3,0.6,2.3,2.1C9.1,16.2,8,16.7,6.7,16.7L6.7,16.7z M21.7,6.7h-6V5.2h6V6.7L21.7,6.7z M24,14c0-3.2-1.9-5.8-5.2-5.8
	c-3.3,0-5.5,2.5-5.5,5.7c0,3.3,2.1,5.6,5.5,5.6c2.6,0,4.2-1.1,5-3.6h-2.6c-0.3,0.9-1.4,1.4-2.3,1.4c-1.7,0-2.6-1-2.6-2.7H24
	C24,14.4,24,14.2,24,14z M16.3,12.7c0.1-1.4,1-2.3,2.4-2.3c1.5,0,2.2,0.9,2.3,2.3H16.3z"/>
</svg>
