<svg width="29" height="32" viewBox="0 0 29 32" fill="none" xmlns="http://www.w3.org/2000/svg">
  <g clip-path="url(#clip0_0_3)">
    <path
      d="M13.54 15.28L0.119995 29.34C0.270684 29.8741 0.541493 30.3666 0.911721 30.78C1.28195 31.1934 1.74179 31.5167 2.2561 31.7251C2.77041 31.9335 3.32556 32.0216 3.87913 31.9826C4.43269 31.9436 4.97 31.7785 5.45 31.5L20.55 22.9L13.54 15.28Z"
      fill="#EA4335"/>
    <path
      d="M27.11 12.89L20.58 9.14999L13.23 15.6L20.61 22.88L27.09 19.18C27.6641 18.8794 28.145 18.4274 28.4805 17.873C28.816 17.3187 28.9934 16.683 28.9934 16.035C28.9934 15.387 28.816 14.7513 28.4805 14.1969C28.145 13.6426 27.6641 13.1906 27.09 12.89H27.11Z"
      fill="#FBBC04"/>
    <path
      d="M0.120009 2.66C0.0388878 2.95989 -0.00147496 3.26934 8.95418e-06 3.58V28.42C0.000820335 28.7305 0.0411442 29.0397 0.120009 29.34L14 15.64L0.120009 2.66Z"
      fill="#4285F4"/>
    <path
      d="M13.64 16L20.58 9.15001L5.5 0.510007C4.93268 0.177748 4.28744 0.00177385 3.63 7.15214e-06C2.83598 -0.00156636 2.06322 0.256535 1.42952 0.734967C0.795826 1.2134 0.33595 1.88592 0.119995 2.65001L13.64 16Z"
      fill="#34A853"/>
  </g>
  <defs>
    <clipPath id="clip0_0_3">
      <rect width="29" height="32" fill="white"/>
    </clipPath>
  </defs>
</svg>
