<svg viewBox="0 0 24 24" version="1.1" xmlns="http://www.w3.org/2000/svg" xmlns:xlink="http://www.w3.org/1999/xlink">
  <g stroke="none" stroke-width="1" fill="none" fill-rule="evenodd">
    <path d="M23.4981818,6.64 C23.2227273,5.60090909 22.4086364,4.78272727 21.3763636,4.50454545 C19.5054545,4 12,4 12,4 C12,4 4.49454545,4 2.62363636,4.50454545 C1.59136364,4.78272727 0.777272727,5.60090909 0.501818182,6.64 C0,8.52454545 0,12.4545455 0,12.4545455 C0,12.4545455 0,16.3845455 0.501818182,18.2690909 C0.777272727,19.3081818 1.59136364,20.1263636 2.62363636,20.4045455 C4.49454545,20.9090909 12,20.9090909 12,20.9090909 C12,20.9090909 19.5054545,20.9090909 21.3763636,20.4045455 C22.4086364,20.1263636 23.2227273,19.3081818 23.4981818,18.2690909 C24,16.3845455 24,12.4545455 24,12.4545455 C24,12.4545455 24,8.52454545 23.4981818,6.64 Z" id="1" fill="#FF0000" fill-rule="nonzero"></path>
    <polygon id="0" fill="#FFFFFF" fill-rule="nonzero" points="9.54545455 16.0231818 15.8181818 12.4545455 9.54545455 8.88590909"></polygon>
  </g>
</svg>
