<svg viewBox="0 0 24 24" version="1.1" xmlns="http://www.w3.org/2000/svg" xmlns:xlink="http://www.w3.org/1999/xlink">
  <defs>
    <linearGradient x1="0%" y1="50.0198663%" x2="100.017577%" y2="50.0198663%" id="linearGradient-1">
      <stop stop-color="#63BE6B" offset="0%"></stop>
      <stop stop-color="#5BBC6A" offset="50.6%"></stop>
      <stop stop-color="#4AB96A" offset="100%"></stop>
    </linearGradient>
    <linearGradient x1="-0.0266963293%" y1="50.0120145%" x2="99.942158%" y2="50.0120145%" id="linearGradient-2">
      <stop stop-color="#3EC6F2" offset="0%"></stop>
      <stop stop-color="#45AFE3" offset="100%"></stop>
    </linearGradient>
    <linearGradient x1="0.0420683611%" y1="50.0367394%" x2="99.9894829%" y2="50.0367394%" id="linearGradient-3">
      <stop stop-color="#FAA51A" offset="0%"></stop>
      <stop stop-color="#FAB716" offset="38.7%"></stop>
      <stop stop-color="#FAC412" offset="74.1%"></stop>
      <stop stop-color="#FAC80F" offset="100%"></stop>
    </linearGradient>
    <linearGradient x1="0.0162601626%" y1="49.9983515%" x2="99.9985218%" y2="49.9983515%" id="linearGradient-4">
      <stop stop-color="#EC3B50" offset="0%"></stop>
      <stop stop-color="#E7515B" offset="100%"></stop>
    </linearGradient>
  </defs>
  <g id="Artboard" stroke="none" stroke-width="1" fill="none" fill-rule="evenodd">
    <path
      d="M15.4437039,7.31963841 L2.77056002,0.0763741948 C2.61131095,-0.0160930079 2.41096535,-0.0109559411 2.25685334,0.0815112616 C2.09760427,0.173978464 2,0.338364602 2,0.523299008 C2,0.523299008 2.00513707,1.19111769 2.01027413,2.29044999 L11.2415832,11.5217591 L15.4437039,7.31963841 Z"
      id="Path" fill="url(#linearGradient-1)" fill-rule="nonzero"></path>
    <path
      d="M2.01027413,2.29044999 C2.02568533,6.25626558 2.07191894,15.8831288 2.0924672,20.6760121 L11.2467203,11.5217591 L2.01027413,2.29044999 Z"
      id="Path" fill="url(#linearGradient-2)" fill-rule="nonzero"></path>
    <path
      d="M22.6972422,11.4652513 L15.4437039,7.31963841 L11.2364461,11.5217591 L15.9830959,16.2684088 L22.7023793,12.3539639 C22.8616283,12.2614967 22.9592326,12.0919735 22.9592326,11.9121761 C22.9592326,11.7272417 22.8564913,11.5577185 22.6972422,11.4652513 Z"
      id="Path" fill="url(#linearGradient-3)" fill-rule="nonzero"></path>
    <path
      d="M2.08733014,20.6760121 C2.09760427,22.3866554 2.10274134,23.4808506 2.10274134,23.4808506 C2.10274134,23.665785 2.20034561,23.8353082 2.35959468,23.9226384 C2.51884375,24.0151056 2.71405229,24.0151056 2.87330136,23.9226384 L15.9882329,16.2735459 L11.2415832,11.5268961 L2.08733014,20.6760121 Z"
      id="Path" fill="url(#linearGradient-4)" fill-rule="nonzero"></path>
  </g>
</svg>
