<?xml version="1.0" encoding="utf-8"?>
<!-- Generator: Adobe Illustrator 22.0.1, SVG Export Plug-In . SVG Version: 6.00 Build 0)  -->
<svg version="1.1" id="Capa_1" xmlns="http://www.w3.org/2000/svg" xmlns:xlink="http://www.w3.org/1999/xlink" x="0px" y="0px"
	 viewBox="0 0 24 24" style="enable-background:new 0 0 24 24;" xml:space="preserve">
<path d="M5.4,24h-5V8h5V24z M2.9,5.8c-1.6,0-2.9-1.3-2.9-2.9S1.3,0,2.9,0s2.9,1.3,2.9,2.9S4.5,5.8,2.9,5.8z M24,24h-5v-7.8
	c0-1.9,0-4.2-2.6-4.2c-2.6,0-3,2-3,4.1V24h-5V8h4.8v2.2h0.1c0.7-1.3,2.3-2.6,4.7-2.6c5,0,6,3.3,6,7.6L24,24L24,24z"/>
</svg>
