<?xml version="1.0" encoding="utf-8"?>
<!-- Generator: Adobe Illustrator 22.0.1, SVG Export Plug-In . SVG Version: 6.00 Build 0)  -->
<svg version="1.1" id="Capa_1" xmlns="http://www.w3.org/2000/svg" xmlns:xlink="http://www.w3.org/1999/xlink" x="0px" y="0px"
	 viewBox="0 0 24 24" style="enable-background:new 0 0 24 24;" xml:space="preserve">
<path d="M2.9,6.3c0-0.3-0.1-0.6-0.3-0.8L0.4,2.8V2.4h7l5.4,11.8l4.7-11.8h6.6v0.4l-1.9,1.8c-0.2,0.1-0.2,0.3-0.2,0.5v13.5
	c0,0.2,0,0.4,0.2,0.5L24,21v0.4h-9.4V21l1.9-1.9c0.2-0.2,0.2-0.2,0.2-0.5V7.7l-5.4,13.7h-0.7L4.3,7.7v9.2c-0.1,0.4,0.1,0.8,0.3,1.1
	L7.2,21v0.4H0.1V21l2.5-3.1c0.3-0.3,0.4-0.7,0.3-1.1V6.3z"/>
</svg>
